PathFileType	3	(X/Y/Z)	D:\Jess\PFP\Labelled\PA26\20251029\SRRun01.trc
DataRate	CameraRate	NumFrames	NumMarkers	Units	OrigDataRate	OrigDataStartFrame	OrigNumFrames
250.0	250.0	4	37	mm	250.0	35312	2501
Frame#	Time	C7			T10			CLAV			LSHO			RSHO			LASIS			RASIS			LPSIS			RPSIS			LILCR			RILCR			LGTR			LTHI			LLTHI			LLEP			LMEP			LPSH			LLSH			LDSH			LLMAL			LMMAL			LTOE			L5TH			LHEE			RGTR			RTHI			RLTHI			RLEP			RMEP			RPSH			RLSH			RDSH			RLMAL			RMMAL			RTOE			R5TH			RHEE			
		X1	Y1	Z1	X2	Y2	Z2	X3	Y3	Z3	X4	Y4	Z4	X5	Y5	Z5	X6	Y6	Z6	X7	Y7	Z7	X8	Y8	Z8	X9	Y9	Z9	X10	Y10	Z10	X11	Y11	Z11	X12	Y12	Z12	X13	Y13	Z13	X14	Y14	Z14	X15	Y15	Z15	X16	Y16	Z16	X17	Y17	Z17	X18	Y18	Z18	X19	Y19	Z19	X20	Y20	Z20	X21	Y21	Z21	X22	Y22	Z22	X23	Y23	Z23	X24	Y24	Z24	X25	Y25	Z25	X26	Y26	Z26	X27	Y27	Z27	X28	Y28	Z28	X29	Y29	Z29	X30	Y30	Z30	X31	Y31	Z31	X32	Y32	Z32	X33	Y33	Z33	X34	Y34	Z34	X35	Y35	Z35	X36	Y36	Z36	X37	Y37	Z37	

313	141.244	1061.821153823822	1442.915854085162	-305.0555168882397	1015.104766227731	1247.253988123894	-292.6876336271743	1195.449034340565	1379.124059235648	-361.4771666979105	1056.43193416949	1436.547980346993	-462.1513613305259	1166.639454185171	1426.43318346662	-183.8580890093558	1153.508905459403	1006.163316318694	-448.377858359703	1145.062806903883	978.2650813964127	-217.9612407737495	982.137040396772	1070.851845233575	-359.3696310699675	981.114685470375	1066.699837573346	-312.8856801101569	1097.465870367166	1073.021036683931	-492.2038227257796	1106.030190821256	1049.609673443118	-189.1024398285404	1111.294241606103	923.662173166633	-515.6308125198912	1222.274215770362	832.7607809184786	-419.8062699765482	1179.608882785059	672.26272075962	-477.603632916424	1225.671973091109	553.3213406834273	-464.3582057598113	nan	nan	nan	1256.999930712823	470.2863303424579	-407.3110145117983	1151.346207840058	366.1996901885753	-475.2358662790288	1148.620327966845	258.539438284055	-420.1886116875409	1072.938295006168	193.376434262879	-453.072754820269	nan	nan	nan	1190.076994948671	121.5589430084599	-438.713272569806	1139.914075149338	105.3125392283546	-477.805587810701	991.7622497976411	181.3498235631816	-400.8748376029296	1037.039684573446	928.3443873578076	-163.4333401828615	1089.643339767775	732.689964864618	-255.9661103821317	946.4283062898245	658.125451319605	-207.0795111354859	890.564725470152	518.771199537584	-225.825537991283	nan	nan	nan	896.3330379894371	431.0493184924143	-285.0239318858425	780.2133017007149	356.9519418727259	-223.1425361806604	794.8012539529686	243.9678696558236	-273.0548053342969	710.7293149493587	167.8610074330827	-252.0318910604108	nan	nan	nan	799.9365375590282	65.12022035967162	-290.2935226984058	753.6079935670964	59.13278311471215	-244.8861128476657	640.1161534010574	191.0862373458998	-299.1877696276081	
314	141.248	1062.086323302281	1446.069064578917	-304.7982848876037	1015.672946988787	1250.363526523821	-291.6371296154686	1194.899094243962	1382.493792517364	-362.5221799630574	1055.263113824921	1439.638723161576	-461.6054088219935	1168.208583933634	1429.821987935697	-185.2149359428661	1154.829770982731	1010.234678969086	-448.267095914302	1146.119233214653	979.9480834961888	-218.3949597202521	983.6110242643971	1074.081224069506	-358.9889400598464	982.6670739196991	1069.815214351776	-312.6491053262519	1098.258714116445	1077.204584980008	-491.9435683111009	1107.920244476807	1052.08087595389	-189.7567634788229	1113.313932779727	928.467575672859	-515.5632252346985	1223.352551372343	836.4286734971145	-418.9345357375915	1179.154425719722	675.6721940249897	-477.1689451157257	1225.286059406925	555.2522455714144	-464.1960750425657	nan	nan	nan	1258.847171807622	472.7471453179345	-407.1232235592639	1158.436760382978	364.0088570183331	-475.3172369225173	1160.075217590425	256.6161464266515	-419.7721275861991	1087.84359943067	187.8226304858974	-452.820065279524	nan	nan	nan	1207.969142632465	121.7583805723046	-436.7164696177772	1159.107059965048	102.72215195745	-475.9803305808477	1006.83544910291	172.3183685726196	-401.2816079336872	1037.617416072133	930.5911900068634	-163.8532369947225	1086.880977946686	734.2524505878363	-256.4239086569989	942.1380441531443	662.2400508864877	-207.4706657534185	883.7258715172894	523.9751637603761	-226.1222009754055	nan	nan	nan	889.6478658058728	435.9997835007972	-285.0967784151654	773.0131528485282	362.3885621759256	-223.9399689679317	788.7144724784027	248.6947172449435	-272.8167003187393	704.6835453788811	172.4797695845788	-252.4587340175644	nan	nan	nan	791.1020717087414	66.03357630294673	-289.9564104394372	744.2582134537402	61.92010567882877	-245.3071834917847	635.4214118506862	197.7117642813013	-300.3663828576031	
315	141.252	1062.352199841648	1449.060552854629	-304.5929224214373	1016.239126966792	1253.319911725282	-290.7074028083305	1194.363559680463	1385.686509835059	-363.5062095608377	1054.21364729809	1442.571740397087	-461.0840637841778	1169.678886491599	1433.051803424288	-186.5750390252717	1156.105866096694	1014.10120110737	-448.1676103416918	1147.138187712141	981.516300342534	-218.8607658851916	985.0756668526769	1077.163091639131	-358.6084500686954	984.209915310125	1072.803623952884	-312.4066276631885	1099.002982305994	1081.140391381766	-491.71819578788	1109.769528526331	1054.392240851335	-190.3861653190268	1115.313058793911	933.0604373194809	-515.4542977366749	1224.315565655675	839.6648235733525	-418.0113946046641	1178.528578281103	678.7967818132913	-476.8586987555317	1224.695859312086	556.8569454794294	-464.1383886511171	nan	nan	nan	1260.497044752222	474.963770123212	-407.1338168222049	1165.303224491685	361.9637868452408	-475.4129961674129	1171.348694890275	254.9773979388216	-419.4129278701693	1102.686975798682	182.7179269740185	-452.5385788091313	nan	nan	nan	1225.502420722091	122.4762565281714	-434.6198330283588	1178.076876775206	100.6824321457731	-474.025233249744	1022.001148582362	163.8138049190464	-401.674319970291	1038.187180901535	932.7556039046548	-164.2060391089054	1084.268570142252	735.7992035408787	-256.7653338265645	938.1432326740357	666.2643125696603	-207.8356278526265	877.3466337303996	529.0595138301776	-226.4141271569728	nan	nan	nan	883.4241048173121	440.7880638842298	-285.1565096517094	766.1325847451031	367.7958486003326	-224.7707316827519	782.7465747099682	253.3987706536562	-272.6446421288804	698.6287610620284	177.2337535178825	-252.9846427317918	nan	nan	nan	782.3401323070054	67.17095248896584	-289.6131442129993	734.9524016027043	64.98726746585908	-245.7826250767344	630.7657431654188	204.3782275600137	-301.6603443061884	
316	141.256	1062.610593635334	1451.878889684395	-304.4404595372667	1016.801628557684	1256.109739882807	-289.9042714263989	1193.846007746793	1388.694089589748	-364.4317357495825	1053.278632538508	1445.34154513789	-460.5914665211311	1171.039452838079	1436.115155256003	-187.9294388604267	1157.328875444709	1017.7366786588	-448.0749715515811	1148.108287482689	982.9765160640385	-219.3502080420091	986.5207317899401	1080.090616051192	-358.2360395026687	985.7299644604262	1075.658593975516	-312.1640673423822	1099.703086239084	1084.807387815167	-491.531059089868	1111.570337666469	1056.54351080223	-190.9877408487333	1117.283049684315	937.4084777779186	-515.3024982631273	1225.130818205471	842.4381220821186	-417.0371121005772	1177.766458145642	681.6174844776073	-476.6861122263035	1223.919480223352	558.1389269497429	-464.1806306352378	nan	nan	nan	1261.963572382747	476.9433300896502	-407.3330886373878	1171.916340065184	360.0703048185467	-475.519386970665	1182.404487702456	253.6291189592048	-419.1138503074814	1117.40456069466	178.0799140581478	-452.2305802896849	nan	nan	nan	1242.618439559152	123.6994265237187	-432.4645536547974	1196.74812520834	99.19618783165934	-471.9753033500294	1037.194648176406	155.8656474656134	-402.0391770399602	1038.737073717176	934.8458437766033	-164.4858238331239	1081.821538215579	737.328154369535	-256.9861898062278	934.4554243844487	670.1785390372195	-208.1757290261737	871.4550985566557	533.9834467642552	-226.7043826547192	nan	nan	nan	877.6657626442372	445.3709925749329	-285.2074265702398	759.576365957748	373.1448120483845	-225.6293932109127	776.865246716113	258.0619483558114	-272.5524035632588	692.5231178851279	182.1156382999141	-253.6117152302269	nan	nan	nan	773.622690259233	68.56401825586644	-289.2849793871162	725.6746922989803	68.33589867591593	-246.3181041080283	626.0880629030839	211.0676273340956	-303.0614642318097	
